<?xml version="1.0" standalone="no"?>
<!DOCTYPE svg PUBLIC "-//W3C//DTD SVG 20010904//EN"
 "http://www.w3.org/TR/2001/REC-SVG-20010904/DTD/svg10.dtd">
<svg version="1.0" xmlns="http://www.w3.org/2000/svg"
 width="1000.000000pt" height="1000.000000pt" viewBox="0 0 1000.000000 1000.000000"
 preserveAspectRatio="xMidYMid meet">
<metadata>
Created by potrace 1.11, written by Peter Selinger 2001-2013
</metadata>
<g transform="translate(0.000000,1000.000000) scale(0.100000,-0.100000)"
fill="#000000" stroke="none">
<path d="M4660 9989 c-2379 -160 -4317 -1991 -4620 -4364 -162 -1274 188
-2603 952 -3613 45 -59 91 -124 103 -145 45 -77 427 -468 630 -644 202 -175
524 -410 685 -500 34 -19 49 -33 46 -43 -3 -8 -15 -42 -27 -75 -56 -157 24
-340 181 -414 79 -37 201 -37 280 0 64 30 140 103 164 158 l18 38 94 -38 c396
-160 860 -272 1344 -326 218 -24 762 -24 980 0 484 54 948 166 1344 326 l94
38 18 -38 c24 -55 100 -128 164 -158 79 -37 201 -37 280 0 157 74 237 257 181
414 -12 33 -24 67 -27 75 -3 10 12 24 46 43 161 90 483 325 685 500 203 176
585 567 630 644 12 21 58 86 103 145 106 140 231 331 326 497 1125 1961 798
4428 -799 6026 -1020 1020 -2434 1550 -3875 1454z"/>
</g>
</svg>
